<mxfile host="app.diagrams.net" modified="2022-03-30T06:31:20.054Z" agent="5.0 (Windows NT 10.0; Win64; x64) AppleWebKit/537.36 (KHTML, like Gecko) Chrome/99.0.4844.82 Safari/537.36" etag="-mDLycJCNUu5JmPdvdAx" version="17.2.5" type="github">
  <diagram id="C5RBs43oDa-KdzZeNtuy" name="Page-1">
    <mxGraphModel dx="1038" dy="586" grid="1" gridSize="10" guides="1" tooltips="1" connect="1" arrows="1" fold="1" page="1" pageScale="1" pageWidth="827" pageHeight="1169" math="0" shadow="0">
      <root>
        <mxCell id="WIyWlLk6GJQsqaUBKTNV-0" />
        <mxCell id="WIyWlLk6GJQsqaUBKTNV-1" parent="WIyWlLk6GJQsqaUBKTNV-0" />
        <mxCell id="MtODdQuM0MkMvu9IIlQ9-0" style="edgeStyle=orthogonalEdgeStyle;rounded=0;orthogonalLoop=1;jettySize=auto;html=1;entryX=1;entryY=0.5;entryDx=0;entryDy=0;fontSize=12;" edge="1" parent="WIyWlLk6GJQsqaUBKTNV-1" source="MtODdQuM0MkMvu9IIlQ9-1" target="MtODdQuM0MkMvu9IIlQ9-18">
          <mxGeometry relative="1" as="geometry">
            <Array as="points">
              <mxPoint x="680" y="510" />
            </Array>
          </mxGeometry>
        </mxCell>
        <mxCell id="MtODdQuM0MkMvu9IIlQ9-1" value="Container" style="swimlane;fontSize=21;strokeWidth=1;fontStyle=0;startSize=40;" vertex="1" parent="WIyWlLk6GJQsqaUBKTNV-1">
          <mxGeometry x="620" y="230" width="120" height="200" as="geometry" />
        </mxCell>
        <mxCell id="MtODdQuM0MkMvu9IIlQ9-2" value="&lt;font style=&quot;font-size: 20px&quot;&gt;Data&lt;br&gt;Record&lt;br&gt;in List&lt;/font&gt;" style="text;html=1;align=center;verticalAlign=middle;resizable=0;points=[];autosize=1;strokeColor=none;fillColor=none;fontSize=21;" vertex="1" parent="MtODdQuM0MkMvu9IIlQ9-1">
          <mxGeometry x="20" y="80" width="80" height="80" as="geometry" />
        </mxCell>
        <mxCell id="MtODdQuM0MkMvu9IIlQ9-3" style="edgeStyle=orthogonalEdgeStyle;rounded=0;orthogonalLoop=1;jettySize=auto;html=1;fontSize=15;" edge="1" parent="WIyWlLk6GJQsqaUBKTNV-1" source="MtODdQuM0MkMvu9IIlQ9-5">
          <mxGeometry relative="1" as="geometry">
            <mxPoint x="190" y="330" as="targetPoint" />
          </mxGeometry>
        </mxCell>
        <mxCell id="MtODdQuM0MkMvu9IIlQ9-4" style="edgeStyle=orthogonalEdgeStyle;rounded=0;orthogonalLoop=1;jettySize=auto;html=1;fontSize=12;entryX=0;entryY=0.5;entryDx=0;entryDy=0;" edge="1" parent="WIyWlLk6GJQsqaUBKTNV-1" source="MtODdQuM0MkMvu9IIlQ9-5" target="MtODdQuM0MkMvu9IIlQ9-12">
          <mxGeometry relative="1" as="geometry">
            <mxPoint x="55" y="180" as="targetPoint" />
            <Array as="points">
              <mxPoint x="55" y="180" />
            </Array>
          </mxGeometry>
        </mxCell>
        <mxCell id="MtODdQuM0MkMvu9IIlQ9-5" value="&lt;font style=&quot;font-size: 15px&quot;&gt;Inventory&amp;nbsp;&lt;br&gt;Manager&lt;/font&gt;" style="shape=umlActor;verticalLabelPosition=bottom;verticalAlign=top;html=1;outlineConnect=0;fontSize=20;strokeWidth=1;" vertex="1" parent="WIyWlLk6GJQsqaUBKTNV-1">
          <mxGeometry x="40" y="300" width="30" height="60" as="geometry" />
        </mxCell>
        <mxCell id="MtODdQuM0MkMvu9IIlQ9-6" style="edgeStyle=orthogonalEdgeStyle;rounded=0;orthogonalLoop=1;jettySize=auto;html=1;entryX=0;entryY=0.5;entryDx=0;entryDy=0;fontSize=12;" edge="1" parent="WIyWlLk6GJQsqaUBKTNV-1" source="MtODdQuM0MkMvu9IIlQ9-7" target="MtODdQuM0MkMvu9IIlQ9-1">
          <mxGeometry relative="1" as="geometry" />
        </mxCell>
        <mxCell id="MtODdQuM0MkMvu9IIlQ9-7" value="Add/Delete&lt;br&gt;Product&amp;nbsp;" style="rounded=1;whiteSpace=wrap;html=1;fontSize=15;strokeWidth=1;" vertex="1" parent="WIyWlLk6GJQsqaUBKTNV-1">
          <mxGeometry x="190" y="300" width="120" height="60" as="geometry" />
        </mxCell>
        <mxCell id="MtODdQuM0MkMvu9IIlQ9-8" value="&lt;font style=&quot;font-size: 12px&quot;&gt;Add: Press 1&lt;/font&gt;" style="text;html=1;strokeColor=none;fillColor=none;align=center;verticalAlign=middle;whiteSpace=wrap;rounded=0;fontSize=15;" vertex="1" parent="WIyWlLk6GJQsqaUBKTNV-1">
          <mxGeometry x="70" y="300" width="120" height="30" as="geometry" />
        </mxCell>
        <mxCell id="MtODdQuM0MkMvu9IIlQ9-9" value="&lt;span style=&quot;font-size: 12px&quot;&gt;Adds new product to Inventory&lt;/span&gt;" style="text;html=1;strokeColor=none;fillColor=none;align=center;verticalAlign=middle;whiteSpace=wrap;rounded=0;fontSize=15;" vertex="1" parent="WIyWlLk6GJQsqaUBKTNV-1">
          <mxGeometry x="370" y="300" width="200" height="30" as="geometry" />
        </mxCell>
        <mxCell id="MtODdQuM0MkMvu9IIlQ9-10" value="&lt;span style=&quot;font-size: 12px&quot;&gt;Deletes product in Inventory if it exits&amp;nbsp;&lt;/span&gt;" style="text;html=1;strokeColor=none;fillColor=none;align=center;verticalAlign=middle;whiteSpace=wrap;rounded=0;fontSize=15;" vertex="1" parent="WIyWlLk6GJQsqaUBKTNV-1">
          <mxGeometry x="370" y="330" width="210" height="30" as="geometry" />
        </mxCell>
        <mxCell id="MtODdQuM0MkMvu9IIlQ9-11" style="edgeStyle=orthogonalEdgeStyle;rounded=0;orthogonalLoop=1;jettySize=auto;html=1;fontSize=12;entryX=0.5;entryY=0;entryDx=0;entryDy=0;" edge="1" parent="WIyWlLk6GJQsqaUBKTNV-1" source="MtODdQuM0MkMvu9IIlQ9-12" target="MtODdQuM0MkMvu9IIlQ9-1">
          <mxGeometry relative="1" as="geometry">
            <mxPoint x="690" y="180" as="targetPoint" />
          </mxGeometry>
        </mxCell>
        <mxCell id="MtODdQuM0MkMvu9IIlQ9-12" value="Modify/&lt;br&gt;Search Product&amp;nbsp;" style="rounded=1;whiteSpace=wrap;html=1;fontSize=15;strokeWidth=1;" vertex="1" parent="WIyWlLk6GJQsqaUBKTNV-1">
          <mxGeometry x="190" y="150" width="120" height="60" as="geometry" />
        </mxCell>
        <mxCell id="MtODdQuM0MkMvu9IIlQ9-13" value="&lt;font style=&quot;font-size: 12px&quot;&gt;Delete: Press 3&lt;/font&gt;" style="text;html=1;strokeColor=none;fillColor=none;align=center;verticalAlign=middle;whiteSpace=wrap;rounded=0;fontSize=15;" vertex="1" parent="WIyWlLk6GJQsqaUBKTNV-1">
          <mxGeometry x="70" y="330" width="120" height="30" as="geometry" />
        </mxCell>
        <mxCell id="MtODdQuM0MkMvu9IIlQ9-14" value="&lt;font style=&quot;font-size: 12px&quot;&gt;Delete: Press 2&lt;/font&gt;" style="text;html=1;strokeColor=none;fillColor=none;align=center;verticalAlign=middle;whiteSpace=wrap;rounded=0;fontSize=15;" vertex="1" parent="WIyWlLk6GJQsqaUBKTNV-1">
          <mxGeometry x="60" y="150" width="100" height="30" as="geometry" />
        </mxCell>
        <mxCell id="MtODdQuM0MkMvu9IIlQ9-15" value="&lt;font style=&quot;font-size: 12px&quot;&gt;Delete: Press 4&lt;/font&gt;" style="text;html=1;strokeColor=none;fillColor=none;align=center;verticalAlign=middle;whiteSpace=wrap;rounded=0;fontSize=15;" vertex="1" parent="WIyWlLk6GJQsqaUBKTNV-1">
          <mxGeometry x="60" y="180" width="100" height="30" as="geometry" />
        </mxCell>
        <mxCell id="MtODdQuM0MkMvu9IIlQ9-16" value="&lt;span style=&quot;font-size: 12px&quot;&gt;Modify/Edit product to Inventory&lt;/span&gt;" style="text;html=1;strokeColor=none;fillColor=none;align=center;verticalAlign=middle;whiteSpace=wrap;rounded=0;fontSize=15;" vertex="1" parent="WIyWlLk6GJQsqaUBKTNV-1">
          <mxGeometry x="360" y="150" width="200" height="30" as="geometry" />
        </mxCell>
        <mxCell id="MtODdQuM0MkMvu9IIlQ9-17" value="&lt;span style=&quot;font-size: 12px&quot;&gt;Will search product to Inventory&lt;/span&gt;" style="text;html=1;strokeColor=none;fillColor=none;align=center;verticalAlign=middle;whiteSpace=wrap;rounded=0;fontSize=15;" vertex="1" parent="WIyWlLk6GJQsqaUBKTNV-1">
          <mxGeometry x="360" y="180" width="200" height="30" as="geometry" />
        </mxCell>
        <mxCell id="MtODdQuM0MkMvu9IIlQ9-18" value="Display&lt;br&gt;&amp;nbsp;Product&amp;nbsp;" style="rounded=1;whiteSpace=wrap;html=1;fontSize=15;strokeWidth=1;" vertex="1" parent="WIyWlLk6GJQsqaUBKTNV-1">
          <mxGeometry x="190" y="480" width="120" height="60" as="geometry" />
        </mxCell>
        <mxCell id="MtODdQuM0MkMvu9IIlQ9-19" value="&lt;span style=&quot;font-size: 12px&quot;&gt;Display all exiting products in Inventory&amp;nbsp;&amp;nbsp;&lt;/span&gt;" style="text;html=1;strokeColor=none;fillColor=none;align=center;verticalAlign=middle;whiteSpace=wrap;rounded=0;fontSize=15;" vertex="1" parent="WIyWlLk6GJQsqaUBKTNV-1">
          <mxGeometry x="335" y="480" width="250" height="30" as="geometry" />
        </mxCell>
        <mxCell id="MtODdQuM0MkMvu9IIlQ9-20" value="Display:&lt;br&gt;Press 5" style="text;html=1;strokeColor=none;fillColor=none;align=center;verticalAlign=middle;whiteSpace=wrap;rounded=0;fontSize=12;" vertex="1" parent="WIyWlLk6GJQsqaUBKTNV-1">
          <mxGeometry x="680" y="460" width="60" height="30" as="geometry" />
        </mxCell>
      </root>
    </mxGraphModel>
  </diagram>
</mxfile>
